<?xml version="1.0" encoding="UTF-8" standalone="no"?>
<!-- Created with Inkscape (http://www.inkscape.org/) -->

<svg
   width="210mm"
   height="297mm"
   viewBox="0 0 210 297"
   version="1.1"
   id="svg1"
   inkscape:version="1.4.4 (dcaf3e7d9e, 2026-05-05)"
   sodipodi:docname="DialogueUI.svg"
   inkscape:export-filename="DialogueUI.png"
   inkscape:export-xdpi="96"
   inkscape:export-ydpi="96"
   xmlns:inkscape="http://www.inkscape.org/namespaces/inkscape"
   xmlns:sodipodi="http://sodipodi.sourceforge.net/DTD/sodipodi-0.dtd"
   xmlns:xlink="http://www.w3.org/1999/xlink"
   xmlns="http://www.w3.org/2000/svg"
   xmlns:svg="http://www.w3.org/2000/svg">
  <sodipodi:namedview
     id="namedview1"
     pagecolor="#ffffff"
     bordercolor="#999999"
     borderopacity="1"
     inkscape:showpageshadow="2"
     inkscape:pageopacity="0"
     inkscape:pagecheckerboard="0"
     inkscape:deskcolor="#d1d1d1"
     inkscape:document-units="mm"
     inkscape:zoom="1.6409512"
     inkscape:cx="402.51045"
     inkscape:cy="320.85049"
     inkscape:window-width="1920"
     inkscape:window-height="1172"
     inkscape:window-x="0"
     inkscape:window-y="0"
     inkscape:window-maximized="1"
     inkscape:current-layer="g1" />
  <defs
     id="defs1">
    <inkscape:path-effect
       effect="fillet_chamfer"
       id="path-effect2"
       is_visible="true"
       lpeversion="1"
       nodesatellites_param="F,0,0,1,0,9.7517915,0,1 @ F,0,0,1,0,10.66111,0,1 @ F,0,0,1,0,11.345184,0,1 @ F,0,0,1,0,9.5209865,0,1"
       radius="0.4"
       unit="mm"
       method="auto"
       mode="F"
       chamfer_steps="1"
       flexible="false"
       use_knot_distance="true"
       apply_no_radius="true"
       apply_with_radius="true"
       only_selected="false"
       hide_knots="false" />
    <linearGradient
       id="linearGradient1"
       inkscape:collect="always">
      <stop
         style="stop-color:#800080;stop-opacity:1;"
         offset="0"
         id="stop1" />
      <stop
         style="stop-color:#d100d1;stop-opacity:1;"
         offset="1"
         id="stop2" />
    </linearGradient>
    <linearGradient
       inkscape:collect="always"
       xlink:href="#linearGradient1"
       id="linearGradient2"
       x1="161.89803"
       y1="98.963196"
       x2="52.90126"
       y2="-10.033572"
       gradientUnits="userSpaceOnUse" />
    <radialGradient
       inkscape:collect="always"
       xlink:href="#linearGradient11"
       id="radialGradient12"
       cx="93.598534"
       cy="212.9548"
       fx="93.598534"
       fy="212.9548"
       r="4.2728009"
       gradientTransform="matrix(1,0,0,0.97169823,21.588466,-86.500482)"
       gradientUnits="userSpaceOnUse" />
    <linearGradient
       id="linearGradient11"
       inkscape:collect="always">
      <stop
         style="stop-color:#7b45be;stop-opacity:1;"
         offset="0"
         id="stop11" />
      <stop
         style="stop-color:#7b45be;stop-opacity:0;"
         offset="1"
         id="stop12" />
    </linearGradient>
    <radialGradient
       inkscape:collect="always"
       xlink:href="#linearGradient11"
       id="radialGradient14"
       cx="126.05287"
       cy="210.70868"
       fx="126.05287"
       fy="210.70868"
       r="4.2728009"
       gradientTransform="matrix(1,0,0,0.97169823,21.588466,-86.564052)"
       gradientUnits="userSpaceOnUse" />
    <radialGradient
       inkscape:collect="always"
       xlink:href="#linearGradient12"
       id="radialGradient14-75"
       cx="126.05287"
       cy="210.70868"
       fx="126.05287"
       fy="210.70868"
       r="4.2728009"
       gradientTransform="matrix(0.60354516,0,0,0.58646376,70.078073,-20.803372)"
       gradientUnits="userSpaceOnUse" />
    <linearGradient
       id="linearGradient12"
       inkscape:collect="always">
      <stop
         style="stop-color:#f49281;stop-opacity:1;"
         offset="0"
         id="stop13" />
      <stop
         style="stop-color:#f49281;stop-opacity:0;"
         offset="1"
         id="stop14" />
    </linearGradient>
    <radialGradient
       inkscape:collect="always"
       xlink:href="#linearGradient12"
       id="radialGradient14-7"
       cx="126.05287"
       cy="210.70868"
       fx="126.05287"
       fy="210.70868"
       r="4.2728009"
       gradientTransform="matrix(0.60354516,0,0,0.58646376,52.510695,-19.680641)"
       gradientUnits="userSpaceOnUse" />
  </defs>
  <g
     inkscape:label="Layer 1"
     inkscape:groupmode="layer"
     id="layer1">
    <path
       style="fill:url(#linearGradient2);stroke:none;stroke-width:1.175;stroke-linecap:round;paint-order:markers stroke fill"
       id="rect1"
       width="154.14467"
       height="41.044437"
       x="30.327278"
       y="23.942589"
       rx="0"
       inkscape:path-effect="#path-effect2"
       sodipodi:type="rect"
       ry="0"
       d="m 40.07907,23.942589 133.73177,0 a 10.66111,10.66111 45 0 1 10.66111,10.66111 V 53.641842 A 11.345184,11.345184 135 0 1 173.12676,64.987026 H 39.848265 A 9.5209865,9.5209865 45 0 1 30.327278,55.46604 V 33.69438 a 9.7517915,9.7517915 135 0 1 9.751792,-9.751791 z" />
    <rect
       style="fill:#800080;stroke:none;stroke-width:1.175;stroke-linecap:round;paint-order:markers stroke fill"
       id="rect4"
       width="35"
       height="35"
       x="35.956028"
       y="79.762756"
       rx="1"
       ry="1" />
    <g
       id="g4"
       inkscape:label="VampireHead"
       transform="matrix(0.56280199,0,0,0.56280199,22.239111,30.054806)">
      <path
         style="fill:#ff0000;fill-opacity:1;stroke-width:0.264583"
         d="m 104.5453,129.81942 7.90066,-1.37052 9.43241,7.57818 16.12378,0.32247 12.25407,-7.98127 5.5627,4.11157 -0.48371,1.77361 -7.98127,5.80456 -6.12703,0.64495 -16.6075,0.48372 -10.15798,-1.85424 -5.88518,-4.11156 -3.95032,-3.386 z"
         id="path8" />
      <path
         style="fill:#1a1a1a;fill-opacity:1;stroke-width:0.264583"
         d="m 108.89873,92.73473 -3.30538,7.57818 -0.80619,7.2557 0.64495,11.68974 2.66043,0.56433 8.62622,-17.73616 4.43404,1.37052 6.77199,4.59528 2.9829,0.64495 5.88518,-5.72394 5.48208,-2.25733 4.11156,2.01547 8.06189,13.06027 3.78909,-1.85424 0.48372,-2.17671 -5.80457,-16.68811 -4.11156,-4.03094 -6.77199,-4.11157 -12.33469,-0.48371 -11.04479,1.2899 -6.8526,2.90228 z"
         id="path7" />
      <path
         style="fill:#a7abd7;fill-opacity:1;stroke-width:0.264583"
         d="m 111.96224,128.28766 -5.32084,1.04805 -3.95033,-1.53176 -3.950325,-7.01384 -1.692997,-5.48209 -0.08062,-2.25733 5.159612,1.61238 4.91775,4.59528 0.80619,-1.12867 2.17671,-11.93159 5.32084,-5.24023 5.88518,0.48371 9.19056,6.85261 5.9658,-6.85261 6.12704,-1.61238 5.80456,1.93486 4.03094,5.72394 2.25733,7.2557 1.93485,-0.16124 1.693,-2.90228 4.51466,-1.61238 0.96743,2.0961 -0.88681,6.69136 -2.33795,4.11157 -6.77199,4.03094 -2.33794,-0.72557 -2.25733,4.35342 -7.17508,6.53013 -6.77199,1.37052 -9.19055,-0.32247 -6.85262,-1.85424 z"
         id="path6" />
      <path
         style="fill:#ffd42a;fill-opacity:1;stroke-width:0.264583"
         d="m 127.92183,145.29883 -5.43206,5.35796 -2.9634,-1.9563 0.12173,-1.14785 -3.44148,-4.17565 -0.71566,-4.46413 2.06106,-4.27159 1.47234,-0.64223 -0.4064,-2.308 3.3511,1.02352 5.37874,4.86238 2.3712,-0.57523 1.87787,0.12554 1.66402,-4.95919 4.32838,-1.9984 3.58485,3.99833 1.3231,4.07558 -0.3728,4.9036 -2.73932,6.28901 -1.73831,0.42719 -4.77512,-4.52092 -2.70036,0.529 z"
         id="path5" />
      <path
         style="fill:#1a1a1a;fill-opacity:1;stroke-width:0.264583"
         d="m 116.31566,119.01649 13.78584,3.22476 14.99511,-4.03095 -0.72557,6.93323 -5.9658,6.44951 -5.88517,2.09609 -4.99838,-0.24186 -6.53013,-2.82166 -3.86971,-5.88518 z"
         id="path14" />
      <ellipse
         style="fill:#1a1a1a;fill-opacity:1;stroke-width:0.264583"
         id="path9"
         cx="120.79001"
         cy="115.42895"
         rx="2.2170196"
         ry="2.0557816" />
      <ellipse
         style="fill:#1a1a1a;fill-opacity:1;stroke-width:0.264583"
         id="path9-3"
         cx="140.71709"
         cy="114.45217"
         rx="2.2170196"
         ry="2.0557816" />
      <ellipse
         style="fill:url(#radialGradient12);fill-opacity:1;stroke-width:0.264583"
         id="path11"
         cx="115.187"
         cy="120.42733"
         rx="4.2728009"
         ry="4.1518731" />
      <ellipse
         style="fill:url(#radialGradient14);fill-opacity:1;stroke-width:0.264583"
         id="path11-7"
         cx="147.64133"
         cy="118.18121"
         rx="4.2728009"
         ry="4.1518731" />
      <path
         style="fill:#ff8080;fill-opacity:1;stroke-width:0.264583"
         d="m 122.76518,131.67366 2.66042,-1.2899 4.75652,-0.32248 5.72394,1.85423 0.24185,0.80619 -3.46661,0.56434 -3.06351,0.16123 -2.66043,-0.48371 z"
         id="path15" />
      <path
         style="fill:#ffffff;fill-opacity:1;stroke-width:0.256322"
         d="m 136.24313,122.1083 c -0.90631,1.16883 0.4013,4.4936 0.4013,4.4936 l -0.24236,5.64623 3.29672,-4.2167 c 0,0 1.53254,-2.88454 1.33862,-4.4062 -0.0962,-0.75525 -0.53901,-1.5724 -1.18474,-1.89656 -1.0871,-0.54572 -2.83628,-0.61759 -3.60954,0.37963 z m 0.18978,-1.57885 c -0.90632,1.16883 0.4013,4.49359 0.4013,4.49359 l -0.24237,5.64624 3.29671,-4.2167 c 0,0 1.53255,-2.88454 1.33864,-4.4062 -0.0962,-0.75525 -0.53902,-1.5724 -1.18476,-1.89656 -1.08709,-0.54572 -2.83627,-0.61759 -3.60952,0.37963 z"
         id="path16"
         sodipodi:nodetypes="scccass" />
      <path
         style="fill:#ffffff;fill-opacity:1;stroke-width:0.264583"
         d="m 124.79866,122.58476 c 0.84122,1.2507 -0.88681,4.43404 -0.88681,4.43404 l -0.32248,5.64332 -3.06351,-4.51466 c 0,0 -1.32926,-3.01875 -0.96743,-4.51466 0.17958,-0.74246 0.73304,-1.51316 1.45114,-1.77361 1.20892,-0.43846 3.07138,-0.3415 3.78909,0.72557 z m -0.0392,-1.58979 c 0.84122,1.2507 -0.88681,4.43404 -0.88681,4.43404 l -0.32248,5.64332 -3.06351,-4.51466 c 0,0 -1.32926,-3.01875 -0.96743,-4.51466 0.17958,-0.74246 0.73304,-1.51316 1.45114,-1.77361 1.20892,-0.43846 3.07138,-0.3415 3.78909,0.72557 z"
         id="path16-5"
         sodipodi:nodetypes="scccass" />
    </g>
    <g
       id="g1"
       inkscape:label="KingHead">
      <path
         style="fill:#ffccaa;fill-opacity:1;stroke-width:0.159688"
         d="m 126.17975,105.07407 -3.21136,0.63255 -2.38421,-0.92449 -2.3842,-4.23317 -1.02179,-3.308681 -0.0486,-1.3624 3.11406,0.973144 2.96808,2.773459 0.48657,-0.681203 1.31375,-7.201254 3.21136,-3.162709 3.55198,0.291941 5.54691,4.135853 3.60063,-4.135853 3.69795,-0.973145 3.50331,1.167776 2.43286,3.45465 1.3624,4.379143 1.16777,-0.09732 1.0218,-1.751657 2.7248,-0.973144 0.58389,1.265091 -0.53523,4.038538 -1.41106,2.481521 -4.0872,2.43285 -1.41105,-0.43791 -1.36241,2.62748 -4.33048,3.94123 -4.0872,0.82717 -5.54691,-0.19462 -4.13587,-1.11912 z"
         id="path6-2" />
      <path
         style="fill:#8f331e;fill-opacity:1;stroke-width:0.159688"
         d="m 124.33079,83.616283 -1.99495,4.573776 -0.48657,4.379137 0.38926,7.055286 1.60568,0.340602 2.09262,-8.368857 2.4325,-2.530345 3.35734,1.021802 4.0872,2.773453 5.49826,0.973144 -0.14597,-4.038538 c 0,0 2.46175,-1.27033 3.79526,-1.265085 0.60206,0.0024 1.99494,1.119112 1.99494,1.119112 l 3.89257,7.298569 2.77345,0.340598 1.07046,-2.286887 c 0,0 -1.84737,-6.997937 -3.79526,-9.974709 -0.63427,-0.969305 -2.48151,-2.432854 -2.48151,-2.432854 l -4.0872,-2.481518 -7.44454,-0.291941 -6.66603,0.778513 -4.13586,1.751657 z"
         id="path7-7"
         sodipodi:nodetypes="cccccccccccsccccacccccc" />
      <path
         style="fill:#e9dab4;fill-opacity:1;stroke-width:0.110673"
         d="m 136.71492,113.21673 -2.2722,2.2412 -1.23958,-0.81831 0.0509,-0.48013 -1.43955,-1.74665 -0.29936,-1.86732 0.86214,-1.78679 0.61587,-0.26864 -0.17,-0.96542 1.40175,0.42813 2.2499,2.03391 0.99186,-0.24062 0.7855,0.0525 0.69605,-2.0744 1.81053,-0.83592 1.49953,1.67248 0.55345,1.70479 -0.15595,2.05115 -1.14583,2.63065 -0.72713,0.1787 -1.99741,-1.89108 -1.12954,0.22128 z"
         id="path5-1" />
      <ellipse
         style="fill:#1a1a1a;fill-opacity:1;stroke-width:0.159688"
         id="path9-0"
         cx="131.50772"
         cy="97.313263"
         rx="1.3380715"
         ry="1.240757" />
      <ellipse
         style="fill:#1a1a1a;fill-opacity:1;stroke-width:0.159688"
         id="path9-3-9"
         cx="143.53461"
         cy="96.72374"
         rx="1.3380715"
         ry="1.240757" />
      <ellipse
         style="fill:url(#radialGradient14-75);fill-opacity:1;stroke-width:0.159688"
         id="path11-7-36"
         cx="146.15668"
         cy="102.76962"
         rx="2.5788283"
         ry="2.5058429" />
      <ellipse
         style="fill:url(#radialGradient14-7);fill-opacity:1;stroke-width:0.159688"
         id="path11-7-3"
         cx="128.58929"
         cy="103.89236"
         rx="2.5788283"
         ry="2.5058429" />
      <g
         id="g15"
         transform="matrix(0.60354516,0,0,0.60354516,71.635102,-28.197827)">
        <path
           style="fill:#1a1a1a;fill-opacity:1;stroke-width:0.264583"
           d="m 99.403094,218.96091 c 0,0 4.391246,-0.5675 9.109936,-0.64495 5.17512,-0.0849 9.02931,-0.32248 9.02931,-0.32248 l 0.88681,2.74105 -1.61238,3.38599 c 0,0 -3.82516,1.79127 -5.88517,2.09609 -1.65011,0.24417 -3.37351,0.13535 -4.99838,-0.24186 -2.3098,-0.53622 -6.530125,-2.82166 -6.530125,-2.82166 0,0 -0.944811,-0.78624 -1.773618,-2.9829 -0.680189,-1.80276 1.773617,-1.20928 1.773617,-1.20928 z"
           id="path14-0"
           sodipodi:nodetypes="cscccsscsc" />
        <path
           style="fill:#ff8080;fill-opacity:1;stroke-width:0.264583"
           d="m 101.17671,224.20114 2.66042,-1.2899 4.75652,-0.32248 5.72394,1.85423 0.24185,0.80619 -3.46661,0.56434 -3.06351,0.16123 -2.66043,-0.48371 z"
           id="path15-6" />
      </g>
      <g
         id="g12"
         inkscape:label="Crown"
         transform="matrix(0.60354516,0,0,0.60354516,108.32258,-54.764627)">
        <path
           style="fill:#fdcf75;fill-opacity:1;stroke-width:0.264583"
           d="m 21.12215,233.95602 25.314332,-5.80456 23.379478,-0.48371 1.289902,-1.61238 -1.934853,-1.12866 -4.030946,-14.99512 -4.030943,7.25571 -4.998373,1.77361 -6.127036,-1.77361 -7.255697,-8.22313 -4.192184,8.86808 -4.35342,3.06351 -4.192182,1.12867 -5.965798,-2.41857 -3.385994,-4.51466 0.644952,16.28502 -1.289902,1.12866 z"
           id="path10" />
        <circle
           style="fill:#2a9b9d;fill-opacity:1;stroke-width:0.264583"
           id="path12"
           cx="44.017914"
           cy="221.70197"
           r="3.7084692" />
        <circle
           style="fill:#2a9b9d;fill-opacity:1;stroke-width:0.235824"
           id="path12-2"
           cx="22.920923"
           cy="227.1266"
           r="3.3053749" />
        <circle
           style="fill:#2a9b9d;fill-opacity:1;stroke-width:0.235824"
           id="path12-2-0"
           cx="67.154602"
           cy="221.16463"
           r="3.3053749" />
        <circle
           style="fill:#faa739;fill-opacity:1;stroke-width:0.264583"
           id="path12-6"
           cx="42.38253"
           cy="209.02638"
           r="3.7084692" />
        <circle
           style="fill:#faa739;fill-opacity:1;stroke-width:0.235824"
           id="path12-2-2"
           cx="21.28554"
           cy="214.45102"
           r="3.3053749" />
        <circle
           style="fill:#faa739;fill-opacity:1;stroke-width:0.235824"
           id="path12-2-0-6"
           cx="65.519218"
           cy="208.48904"
           r="3.3053749" />
      </g>
    </g>
  </g>
</svg>
