<?xml version="1.0" encoding="UTF-8" standalone="no"?>
<!-- Created with Inkscape (http://www.inkscape.org/) -->

<svg
   width="210mm"
   height="297mm"
   viewBox="0 0 210 297"
   version="1.1"
   id="svg1"
   xml:space="preserve"
   inkscape:version="1.4.4 (dcaf3e7d9e, 2026-05-05)"
   sodipodi:docname="King.svg"
   inkscape:export-filename="King.png"
   inkscape:export-xdpi="96"
   inkscape:export-ydpi="96"
   xmlns:inkscape="http://www.inkscape.org/namespaces/inkscape"
   xmlns:sodipodi="http://sodipodi.sourceforge.net/DTD/sodipodi-0.dtd"
   xmlns:xlink="http://www.w3.org/1999/xlink"
   xmlns="http://www.w3.org/2000/svg"
   xmlns:svg="http://www.w3.org/2000/svg"><sodipodi:namedview
     id="namedview1"
     pagecolor="#ffffff"
     bordercolor="#999999"
     borderopacity="1"
     inkscape:showpageshadow="2"
     inkscape:pageopacity="0"
     inkscape:pagecheckerboard="0"
     inkscape:deskcolor="#d1d1d1"
     inkscape:document-units="mm"
     inkscape:zoom="0.8204756"
     inkscape:cx="477.16227"
     inkscape:cy="903.74412"
     inkscape:window-width="1920"
     inkscape:window-height="1172"
     inkscape:window-x="0"
     inkscape:window-y="0"
     inkscape:window-maximized="1"
     inkscape:current-layer="layer1" /><defs
     id="defs1"><linearGradient
       id="linearGradient12"
       inkscape:collect="always"><stop
         style="stop-color:#f49281;stop-opacity:1;"
         offset="0"
         id="stop13" /><stop
         style="stop-color:#f49281;stop-opacity:0;"
         offset="1"
         id="stop14" /></linearGradient><radialGradient
       inkscape:collect="always"
       xlink:href="#linearGradient12"
       id="radialGradient14"
       cx="126.05287"
       cy="210.70868"
       fx="126.05287"
       fy="210.70868"
       r="4.2728009"
       gradientTransform="matrix(1,0,0,0.97169823,-2.5798045,12.251701)"
       gradientUnits="userSpaceOnUse" /><radialGradient
       inkscape:collect="always"
       xlink:href="#linearGradient12"
       id="radialGradient14-7"
       cx="126.05287"
       cy="210.70868"
       fx="126.05287"
       fy="210.70868"
       r="4.2728009"
       gradientTransform="matrix(1,0,0,0.97169823,-31.686786,14.111928)"
       gradientUnits="userSpaceOnUse" /></defs><g
     inkscape:label="Layer 1"
     inkscape:groupmode="layer"
     id="layer1"><rect
       style="fill:#7b6d5e;fill-opacity:1;stroke-width:0.264583"
       id="rect5"
       width="9.1099348"
       height="20.799675"
       x="103.75651"
       y="232.34364" /><path
       style="fill:#1a1a1a;stroke-width:0.264583"
       d="m 98.355048,252.17589 4.353422,24.02442 -3.224757,3.38601 h 8.545607 l -0.32248,-23.8632 0.96743,1.12867 0.32247,22.41205 10.80293,1.45114 -5.15961,-5.15962 2.57981,-26.60422 c 0,0 -6.93323,2.90228 -18.058634,1.12866 -0.765878,2.15655 -0.806188,2.09609 -0.806188,2.09609 z"
       id="path1"
       sodipodi:nodetypes="cccccccccccc" /><g
       id="g13"
       transform="rotate(8.9634445,94.364413,247.03975)"
       style="fill:#447a7c;fill-opacity:1"><ellipse
         style="fill:#ffccaa;fill-opacity:1;stroke-width:0.264583"
         id="path4"
         cx="91.623367"
         cy="250.9666"
         rx="2.5394952"
         ry="2.1767099" /><path
         style="fill:#447a7c;fill-opacity:1;stroke-width:0.264583"
         d="m 88.922637,249.35423 5.643324,1.2899 1.048044,-13.30211 3.385994,-4.91776 -4.434038,-1.77361 -5.320848,13.2215 z"
         id="path3" /></g><path
       style="fill:#519490;stroke-width:0.264583;fill-opacity:1"
       d="m 104.40147,232.10179 -0.56434,13.62459 1.04805,11.20603 -6.77199,-0.96743 -5.965796,-2.82166 3.950324,-17.4943 4.111562,-5.5627 z"
       id="path2" /><g
       id="g14"
       transform="translate(-1.2899023,-1.1286645)"
       style="fill:#447a7c;fill-opacity:1"><ellipse
         style="fill:#ffccaa;fill-opacity:1;stroke-width:0.261221"
         id="path4-1"
         cx="-110.54794"
         cy="256.2247"
         rx="2.4753666"
         ry="2.1767099"
         transform="matrix(-0.99857477,0.05337073,0.05337073,0.99857477,0,0)" /><path
         style="fill:#447a7c;stroke-width:0.261221;fill-opacity:1"
         d="m 126.60803,248.20895 -5.42414,1.58164 -1.73007,-13.22862 -3.55825,-4.73461 4.22125,-2.00175 5.88473,12.92585 z"
         id="path3-2" /></g><path
       style="fill:#519490;stroke-width:0.261221;fill-opacity:1"
       d="m 110.62081,231.78635 1.27645,13.57582 -0.42205,11.24458 6.53994,-1.31835 5.65625,-3.128 -4.77876,-17.26386 -4.29891,-5.34087 z"
       id="path2-9" /><path
       style="fill:#e9dab4;fill-opacity:1;stroke-width:0.183372"
       d="m 106.22633,233.50507 -3.76476,3.7134 -2.05382,-1.35584 0.0844,-0.79553 -2.385158,-2.89398 -0.495998,-3.09392 1.428447,-2.96048 1.020429,-0.44511 -0.281665,-1.59959 2.322515,0.70937 3.72781,3.36993 1.64339,-0.39867 1.30148,0.087 1.15327,-3.43703 2.99983,-1.38502 2.48453,2.7711 0.91699,2.82463 -0.25838,3.3985 -1.89851,4.35867 -1.20476,0.29607 -3.30946,-3.13328 -1.87151,0.36663 z"
       id="path5" /><path
       style="fill:#ffccaa;fill-opacity:1;stroke-width:0.264583"
       d="m 90.373778,220.81514 -5.320847,1.04805 -3.950327,-1.53176 -3.950325,-7.01384 -1.692997,-5.48209 -0.08062,-2.25733 5.15961,1.61238 4.917752,4.59528 0.806188,-1.12867 2.176709,-11.93159 5.320847,-5.24023 5.88518,0.48371 9.190552,6.85261 5.9658,-6.85261 6.12704,-1.61238 5.80456,1.93486 4.03094,5.72394 2.25733,7.2557 1.93485,-0.16124 1.693,-2.90228 4.51466,-1.61238 0.96743,2.0961 -0.88681,6.69136 -2.33795,4.11157 -6.77199,4.03094 -2.33794,-0.72557 -2.25733,4.35342 -7.17508,6.53013 -6.77199,1.37052 -9.19055,-0.32247 -6.852614,-1.85424 z"
       id="path6" /><path
       style="fill:#8f331e;fill-opacity:1;stroke-width:0.264583"
       d="m 87.310261,185.26221 -3.305377,7.57818 -0.806188,7.2557 0.644951,11.68974 2.660423,0.56433 3.467205,-13.86616 4.030354,-4.19248 5.562703,1.693 6.771988,4.59528 9.10994,1.61238 -0.24186,-6.69137 c 0,0 4.07881,-2.10478 6.28827,-2.09609 0.99755,0.004 3.30537,1.85423 3.30537,1.85423 l 6.44951,12.09284 4.59528,0.56433 1.77362,-3.78909 c 0,0 -3.06087,-11.59473 -6.28828,-16.52687 -1.05092,-1.60602 -4.11156,-4.03094 -4.11156,-4.03094 l -6.77199,-4.11157 -12.33469,-0.48371 -11.044784,1.2899 -6.852607,2.90228 z"
       id="path7"
       sodipodi:nodetypes="cccccccccccsccccacccccc" /><ellipse
       style="fill:#1a1a1a;fill-opacity:1;stroke-width:0.264583"
       id="path9"
       cx="99.201546"
       cy="207.95642"
       rx="2.2170196"
       ry="2.0557816" /><ellipse
       style="fill:#1a1a1a;fill-opacity:1;stroke-width:0.264583"
       id="path9-3"
       cx="119.12862"
       cy="206.97964"
       rx="2.2170196"
       ry="2.0557816" /><ellipse
       style="fill:url(#radialGradient14);fill-opacity:1;stroke-width:0.264583"
       id="path11-7"
       cx="123.47307"
       cy="216.99695"
       rx="4.2728009"
       ry="4.1518731" /><ellipse
       style="fill:url(#radialGradient14-7);fill-opacity:1;stroke-width:0.264583"
       id="path11-7-3"
       cx="94.366089"
       cy="218.85718"
       rx="4.2728009"
       ry="4.1518731" /><g
       id="g15"><path
         style="fill:#1a1a1a;fill-opacity:1;stroke-width:0.264583"
         d="m 99.403094,218.96091 c 0,0 4.391246,-0.5675 9.109936,-0.64495 5.17512,-0.0849 9.02931,-0.32248 9.02931,-0.32248 l 0.88681,2.74105 -1.61238,3.38599 c 0,0 -3.82516,1.79127 -5.88517,2.09609 -1.65011,0.24417 -3.37351,0.13535 -4.99838,-0.24186 -2.3098,-0.53622 -6.530125,-2.82166 -6.530125,-2.82166 0,0 -0.944811,-0.78624 -1.773618,-2.9829 -0.680189,-1.80276 1.773617,-1.20928 1.773617,-1.20928 z"
         id="path14"
         sodipodi:nodetypes="cscccsscsc" /><path
         style="fill:#ff8080;fill-opacity:1;stroke-width:0.264583"
         d="m 101.17671,224.20114 2.66042,-1.2899 4.75652,-0.32248 5.72394,1.85423 0.24185,0.80619 -3.46661,0.56434 -3.06351,0.16123 -2.66043,-0.48371 z"
         id="path15" /></g><g
       id="g12"
       inkscape:label="Crown"
       transform="translate(60.786644,-44.017915)"><path
         style="fill:#fdcf75;fill-opacity:1;stroke-width:0.264583"
         d="m 21.12215,233.95602 25.314332,-5.80456 23.379478,-0.48371 1.289902,-1.61238 -1.934853,-1.12866 -4.030946,-14.99512 -4.030943,7.25571 -4.998373,1.77361 -6.127036,-1.77361 -7.255697,-8.22313 -4.192184,8.86808 -4.35342,3.06351 -4.192182,1.12867 -5.965798,-2.41857 -3.385994,-4.51466 0.644952,16.28502 -1.289902,1.12866 z"
         id="path10" /><circle
         style="fill:#2a9b9d;fill-opacity:1;stroke-width:0.264583"
         id="path12"
         cx="44.017914"
         cy="221.70197"
         r="3.7084692" /><circle
         style="fill:#2a9b9d;fill-opacity:1;stroke-width:0.235824"
         id="path12-2"
         cx="22.920923"
         cy="227.1266"
         r="3.3053749" /><circle
         style="fill:#2a9b9d;fill-opacity:1;stroke-width:0.235824"
         id="path12-2-0"
         cx="67.154602"
         cy="221.16463"
         r="3.3053749" /><circle
         style="fill:#faa739;fill-opacity:1;stroke-width:0.264583"
         id="path12-6"
         cx="42.38253"
         cy="209.02638"
         r="3.7084692" /><circle
         style="fill:#faa739;fill-opacity:1;stroke-width:0.235824"
         id="path12-2-2"
         cx="21.28554"
         cy="214.45102"
         r="3.3053749" /><circle
         style="fill:#faa739;fill-opacity:1;stroke-width:0.235824"
         id="path12-2-0-6"
         cx="65.519218"
         cy="208.48904"
         r="3.3053749" /></g></g></svg>
