<?xml version="1.0" encoding="UTF-8" standalone="no"?>
<!-- Created with Inkscape (http://www.inkscape.org/) -->

<svg
   width="210mm"
   height="297mm"
   viewBox="0 0 210 297"
   version="1.1"
   id="svg1"
   xml:space="preserve"
   inkscape:version="1.4.4 (dcaf3e7d9e, 2026-05-05)"
   sodipodi:docname="Lamp.svg"
   inkscape:export-filename="Lamp.png"
   inkscape:export-xdpi="96"
   inkscape:export-ydpi="96"
   xmlns:inkscape="http://www.inkscape.org/namespaces/inkscape"
   xmlns:sodipodi="http://sodipodi.sourceforge.net/DTD/sodipodi-0.dtd"
   xmlns="http://www.w3.org/2000/svg"
   xmlns:svg="http://www.w3.org/2000/svg"><sodipodi:namedview
     id="namedview1"
     pagecolor="#ffffff"
     bordercolor="#999999"
     borderopacity="1"
     inkscape:showpageshadow="2"
     inkscape:pageopacity="0"
     inkscape:pagecheckerboard="0"
     inkscape:deskcolor="#d1d1d1"
     inkscape:document-units="mm"
     inkscape:zoom="1"
     inkscape:cx="410"
     inkscape:cy="586.5"
     inkscape:window-width="1920"
     inkscape:window-height="1172"
     inkscape:window-x="0"
     inkscape:window-y="0"
     inkscape:window-maximized="1"
     inkscape:current-layer="layer1" /><defs
     id="defs1" /><g
     inkscape:label="Layer 1"
     inkscape:groupmode="layer"
     id="layer1"><path
       style="fill:#636869;stroke-width:1.291;stroke-linecap:round;paint-order:markers stroke fill;fill-opacity:1"
       d="m 72.07329,172.04071 7.094461,26.12053 4.030945,7.73941 11.609121,6.28827 11.931593,-8.06189 2.90228,-9.35179 4.99837,-21.28339 -21.122145,-10.96417 z"
       id="path1" /><path
       style="fill:#98a099;fill-opacity:1;stroke-width:1.93957;stroke-linecap:round;paint-order:markers stroke fill"
       d="m 100.37052,177.93857 v -10.3722 l 5.72394,0.18192 -0.28217,12.55584 -5.36115,-1.27378 z"
       id="path4" /><path
       style="fill:#22201f;fill-opacity:1;stroke-width:1.291;stroke-linecap:round;paint-order:markers stroke fill"
       d="m 112.98622,162.12553 2.39426,-2.33725 2.39426,-1.19713 3.50588,-2.85031 0.74108,-4.21845 1.00273,-6.20684 1.37052,-5.03868 2.94259,-9.59365 h 0.64495 v 0.92712 l -0.0806,1.08835 0.12093,0.44341 -4.2728,13.98738 -0.4031,6.61075 -1.08835,3.10382 -1.81393,2.78136 -3.95032,2.1364 -1.77362,1.24959 z"
       id="path12" /><path
       style="fill:#3b3d3a;fill-opacity:1;stroke-width:1.291;stroke-linecap:round;paint-order:markers stroke fill"
       d="m 97.908088,161.07092 -0.256527,-10.85967 1.93821,-0.96911 2.992829,-0.48455 2.8788,0.14251 2.33726,1.25414 0.057,11.45824 z"
       id="path13" /><path
       style="fill:#22201f;fill-opacity:1;stroke-width:1.29102;stroke-linecap:round;paint-order:markers stroke fill"
       d="m 93.625972,162.73698 -2.39432,-2.33725 -2.39433,-1.19713 -3.50597,-2.85031 -0.7411,-4.21845 -1.00276,-6.20684 -1.37055,-5.03868 -2.94267,-9.59365 h -0.64497 v 0.92712 l 0.0806,1.08835 -0.12093,0.44341 4.27291,13.98738 0.40311,6.61075 1.08838,3.10382 1.81398,2.78136 3.95043,2.1364 1.77366,1.24959 z"
       id="path12-3" /><path
       style="fill:#1d1b1a;fill-opacity:1;stroke-width:1.291;stroke-linecap:round;paint-order:markers stroke fill"
       d="m 98.563659,160.72888 -0.427546,-2.02372 -1.909706,-2.28024 -3.135339,-4.10445 -0.655572,-4.21845 -1.336148,-25.31945 -2.176711,-0.72557 -1.048044,1.12867 -0.564332,0.72557 -1.773616,-0.24186 -1.128665,1.20928 0.644951,3.95033 1.773616,6.77199 1.451139,8.38436 0.403095,6.20765 0.644951,4.19219 2.579804,3.62785 2.660425,3.30537 1.128662,1.20928 z"
       id="path10" /><path
       style="fill:#1d1b1a;fill-opacity:1;stroke-width:1.291;stroke-linecap:round;paint-order:markers stroke fill"
       d="m 109.96417,161.51995 0.76587,-2.5395 1.65269,-3.02321 1.41083,-3.66816 0.8465,-6.93322 0.68526,-9.10994 1.12867,-4.67589 1.97516,-7.94096 -1.53176,-1.73331 -1.2899,0.16124 -0.76588,0.52402 -1.97516,-1.693 -2.41857,0.36279 -0.12093,2.09609 0.0806,8.62622 -0.48371,4.99837 -0.36279,4.87745 -0.72557,9.3921 -2.33795,5.40146 -1.16897,2.21702 c 0,0 -0.16124,2.25733 -0.28217,2.57981 -0.12092,0.32247 4.91776,0.0806 4.91776,0.0806 z"
       id="path11" /><ellipse
       style="fill:#000000;fill-opacity:1;stroke-width:1.3283;stroke-linecap:round;paint-order:markers stroke fill"
       id="path9"
       cx="103.15187"
       cy="168.79581"
       rx="12.012215"
       ry="3.6480048" /><path
       style="fill:#3b3d3a;fill-opacity:1;stroke-width:1.291;stroke-linecap:round;paint-order:markers stroke fill"
       d="m 100.41636,178.79984 5.30157,0.34203 3.24935,0.59857 0.25653,1.65318 -0.79809,1.33964 -0.057,0.96911 0.39904,1.19713 1.14013,0.85509 0.79808,0.14251 0.39904,0.54156 1.93822,0.9406 0.11401,0.76959 -0.54156,0.68407 -1.56767,0.37054 -0.39904,0.85509 -1.62468,0.74108 -0.8836,1.19713 -0.11401,1.42516 0.76959,1.45366 -0.65558,1.8812 -3.93342,-0.14252 -5.786126,-0.31353 -0.769583,-8.3514 1.054613,-5.21607 z"
       id="path3" /><path
       style="fill:#211d1a;fill-opacity:1;stroke-width:1.291;stroke-linecap:round;paint-order:markers stroke fill"
       d="m 93.03406,189.08945 1.311143,0.51305 0.513056,0.57006 2.052222,0.96911 0.28503,1.08312 -0.627068,2.22324 -0.171018,1.8812 3.648395,0.057 -0.114011,-2.16624 0.741081,-3.30635 -2.337255,-4.5605 2.451265,-2.7933 -0.17102,-2.85031 -0.34204,-0.39904 0.34204,-1.53917 -3.24935,1.08312 -0.570061,1.99521 -3.933425,1.93821 -0.114015,3.47738 1e-6,0.0499 0.02223,0.0125 0.04772,0.27653 0.04407,0.11718 z"
       id="path2"
       sodipodi:nodetypes="cccccccccccccccccccccccc" /><path
       style="fill:#22201f;fill-opacity:1;stroke-width:1.291;stroke-linecap:round;paint-order:markers stroke fill"
       d="m 108.02932,172.32288 4.13171,-0.0806 0.98758,-1.14882 -0.0403,-3.14413 1.04805,0.10077 -0.16124,2.51934 -0.20155,1.97516 -0.92711,1.12867 -2.86197,0.46356 -3.02321,0.10077 -0.88681,0.80619 -0.82634,0.64495 -0.78604,0.36278 -3.05386,-0.14473 -1.18288,-0.98335 -1.781442,-0.34204 -2.380007,0.34204 -2.023718,0.12826 -0.983356,-1.76719 -1.140124,-2.56528 0.242277,-1.53916 -0.13235,-1.916 h 0.604641 l 0.161237,2.5798 0.262012,1.67284 0.68526,1.43099 1.410833,0.28216 1.551913,-0.28216 z"
       id="path6" /><path
       style="fill:#1d1b1a;fill-opacity:1;stroke-width:1.291;stroke-linecap:round;paint-order:markers stroke fill"
       d="m 102.44646,172.12133 -2.599963,-0.68526 -0.927116,-2.03562 0.161237,-3.00306 -4.615432,0.16124 0.08062,2.27748 0.483714,2.70074 0.806188,1.18912 2.035627,0.78604 2.741045,0.74572 0.8465,1.16898 0.40309,1.77361 0.38294,1.99532 2.09609,0.0202 1.43099,-5.94564 3.36583,-1.0682 0.92712,-2.45888 0.0403,-3.4263 -4.83713,-0.46356 -0.16124,3.32553 -0.42325,1.85423 z"
       id="path5" /><path
       style="fill:#22201f;fill-opacity:1;stroke-width:1.291;stroke-linecap:round;paint-order:markers stroke fill"
       d="m 91.010342,162.98062 2.850309,-1.39665 1.795695,-0.54155 5.444084,-0.71258 5.55811,0.14251 5.64361,1.08312 2.56527,1.33965 0.057,1.76719 0.45605,-0.0285 0.39904,0.42755 -0.057,2.10923 -0.48455,0.68407 h -0.37054 l 0.057,1.08312 -2.85031,-1.31114 -5.04505,-0.8551 -3.47737,-0.25652 -4.531992,0.22802 -4.874027,0.51306 -1.681681,0.74108 -1.56767,0.71258 z"
       id="path7" /><path
       style="fill:#22201f;fill-opacity:1;stroke-width:1.85321;stroke-linecap:round;paint-order:markers stroke fill"
       d="m 81.664701,146.06484 5.066632,-1.61903 3.19199,-0.62777 9.677255,-0.82603 9.879972,0.1652 10.03193,1.25557 4.55996,1.55294 0.10132,2.04856 0.81066,-0.033 0.70932,0.49561 -0.10132,2.44506 -0.86132,0.79299 h -0.65866 l 0.10132,1.25557 -5.06664,-1.5199 -8.96795,-0.99124 -6.18128,-0.29736 -8.055961,0.26432 -8.663952,0.59475 -2.989308,0.85907 -2.786651,0.82603 z"
       id="path7-4" /><path
       style="fill:#22201f;fill-opacity:1;stroke-width:1.291;stroke-linecap:round;paint-order:markers stroke fill"
       d="m 91.095853,165.11836 -0.54156,-0.0855 -0.370541,0.19952 0.0285,2.05222 0.370541,0.31353 0.684075,0.0285 z"
       id="path8" /><path
       style="fill:#22201f;fill-opacity:1;stroke-width:1.291;stroke-linecap:round;paint-order:markers stroke fill"
       d="m 81.778922,148.04669 -0.54156,-0.0855 -0.370541,0.19952 0.0285,2.05222 0.370541,0.31353 0.684075,0.0285 z"
       id="path8-6" /></g></svg>
