<?xml version="1.0" encoding="UTF-8" standalone="no"?>
<!-- Created with Inkscape (http://www.inkscape.org/) -->

<svg
   width="210mm"
   height="297mm"
   viewBox="0 0 210 297"
   version="1.1"
   id="svg1"
   xml:space="preserve"
   inkscape:version="1.4.4 (dcaf3e7d9e, 2026-05-05)"
   sodipodi:docname="Person.svg"
   xmlns:inkscape="http://www.inkscape.org/namespaces/inkscape"
   xmlns:sodipodi="http://sodipodi.sourceforge.net/DTD/sodipodi-0.dtd"
   xmlns="http://www.w3.org/2000/svg"
   xmlns:svg="http://www.w3.org/2000/svg"><sodipodi:namedview
     id="namedview1"
     pagecolor="#ffffff"
     bordercolor="#999999"
     borderopacity="1"
     inkscape:showpageshadow="2"
     inkscape:pageopacity="0"
     inkscape:pagecheckerboard="0"
     inkscape:deskcolor="#d1d1d1"
     inkscape:document-units="mm"
     inkscape:zoom="1.1603277"
     inkscape:cx="377.04865"
     inkscape:cy="883.80205"
     inkscape:window-width="1920"
     inkscape:window-height="1172"
     inkscape:window-x="0"
     inkscape:window-y="0"
     inkscape:window-maximized="1"
     inkscape:current-layer="layer1" /><defs
     id="defs1" /><g
     inkscape:label="Layer 1"
     inkscape:groupmode="layer"
     id="layer1"><g
       id="g21"
       inkscape:label="Human"><g
         id="g18"
         inkscape:label="ArmLeft"><path
           style="fill:#ffccaa;stroke-width:0.264583"
           d="m 127.53909,218.96091 0.32247,14.5114 3.86971,2.41857 3.06352,-2.74104 -1.2899,-15.47883 z"
           id="path12"
           inkscape:label="Arm3" /><path
           style="fill:#ffccaa;stroke-width:0.264583"
           d="m 127.37785,204.44951 0.16124,14.99511 6.12704,-0.80619 -0.96743,-20.79967 -5.32085,-0.96743 z"
           id="path11"
           inkscape:label="Arm2" /><path
           style="fill:#008000;stroke-width:0.264583"
           d="m 120.92834,187.68078 5.32084,12.57654 5.9658,-1.61237 2.57981,-2.41857 -5.80456,-18.21987 -2.57981,-5.80456 -5.48208,-0.16124 z"
           id="path10"
           sodipodi:nodetypes="cccccccc"
           inkscape:label="Arm1" /></g><g
         id="g19"
         inkscape:label="ArmRight"><path
           style="fill:#ffccaa;stroke-width:0.264583"
           d="m 80.348655,210.41836 -4.225478,13.88633 2.920865,3.50609 3.766309,-1.64723 3.608555,-15.10749 z"
           id="path12-6"
           inkscape:label="Arm3" /><path
           style="fill:#ffccaa;stroke-width:0.264583"
           d="m 84.727298,196.58239 -4.529703,14.29549 6.072368,1.14757 5.576562,-20.06151 -4.752608,-2.58071 z"
           id="path11-3"
           inkscape:label="Arm2" /><path
           style="fill:#008000;stroke-width:0.264583"
           d="m 97.38762,172.04071 -6.449509,2.74105 -8.061891,14.02769 3.547231,3.54722 9.029317,1.77362 2.741043,-16.12378 z"
           id="path9"
           inkscape:label="Arm1" /></g><g
         id="g17"
         inkscape:label="Face"><path
           style="fill:#ffccaa;stroke-width:0.264583"
           d="m 103.35342,168.00977 -1.2899,6.93323 2.5798,5.1596 h 6.93323 l 6.61074,-3.38599 c 0,0 -1.93485,-6.77199 -2.5798,-6.77199 -0.64495,0 -4.51466,-1.45114 -4.51466,-1.45114 0,0 5.9658,-0.48371 7.73941,-6.28827 1.77362,-5.80456 0.96743,-15.8013 0.96743,-15.8013 l -11.93159,-4.51466 -15.801307,5.48208 1.773616,14.5114 c 0,0 5.965798,9.51303 9.513031,6.12704 z"
           id="path13" /><ellipse
           style="fill:#1a1a1a;stroke-width:0.204838"
           id="path14-1"
           cx="111.84505"
           cy="154.98524"
           rx="3.8697066"
           ry="4.0569506" /><ellipse
           style="fill:#1a1a1a;stroke-width:0.204838"
           id="path14-1-0"
           cx="98.920685"
           cy="155.54741"
           rx="3.8697066"
           ry="4.0569506" /></g><g
         id="g16"
         inkscape:label="LegRight"><path
           style="fill:#666666;stroke-width:0.264583"
           d="m 92.872964,242.66286 3.708468,28.70034 7.416938,0.16124 0.16124,-9.99676 -0.64495,-20.31596 -10.319222,-1.45114 z"
           id="path2"
           inkscape:label="Leg2" /><path
           style="fill:#666666;stroke-width:0.264583"
           d="m 95.29153,221.54071 -2.418566,21.12215 10.641696,1.2899 2.90228,-21.60586 z"
           id="path1"
           inkscape:label="Leg1" /><path
           style="fill:#1a1a1a;stroke-width:0.264583"
           d="m 92.711727,266.04235 13.705213,-0.16124 -0.32248,23.8632 -12.737782,2.09608 -10.480458,-1.45114 -0.322475,-3.386 10.480456,-5.32085 z"
           id="path3"
           inkscape:label="Boot" /></g><g
         id="g15"
         inkscape:label="LegLeft"><path
           style="fill:#666666;stroke-width:0.264583"
           d="m 110.03889,242.79229 3.70847,28.70034 7.41694,0.16124 0.16124,-9.99676 -0.64495,-20.31596 -10.31923,-1.45114 z"
           id="path2-9"
           inkscape:label="Leg2" /><path
           style="fill:#666666;stroke-width:0.264583"
           d="m 112.45746,221.67014 -2.41857,21.12215 10.6417,1.2899 2.90228,-21.60586 z"
           id="path1-2"
           inkscape:label="Leg1" /><path
           style="fill:#1a1a1a;stroke-width:0.264583"
           d="m 109.87765,266.17178 13.70522,-0.16124 -0.32248,23.8632 -12.73779,2.09608 -10.48045,-1.45114 -0.322478,-3.386 10.480458,-5.32085 z"
           id="path3-1"
           inkscape:label="Boot" /></g><g
         id="g14"
         inkscape:label="Belt"><path
           style="fill:#1a1a1a;stroke-width:0.264583"
           d="m 95.775244,228.79641 26.604236,-0.16123 1.77361,-8.86808 -14.18892,2.09609 -6.93323,-0.48371 -5.965794,-1.28991 -3.547231,8.70684 z"
           id="path4" /><path
           style="fill:#c87137;stroke-width:0.264583"
           d="m 96.420195,220.25081 0.483712,-1.77361 7.094463,0.64495 -0.64495,3.06351 z"
           id="path5" /><path
           style="fill:#c87137;stroke-width:0.264583"
           d="m 108.02932,218.96091 0.80618,2.90228 14.99512,-1.77362 -0.16124,-3.22475 z"
           id="path6" /><path
           style="fill:#ffd42a;stroke-width:0.264583"
           d="m 103.6759,218.96091 h 5.48208 v 3.86971 l -5.9658,-1.12867 z"
           id="path7" /></g><path
         style="fill:#008000;stroke-width:0.264583"
         d="m 96.581432,218.63843 1.128665,-30.3127 -0.483714,-16.76873 7.739417,-1.77362 -1.77362,4.51466 1.12867,3.86971 5.48208,0.80619 4.19218,-3.06352 1.45114,-5.48208 8.38437,2.09609 -0.32248,44.8241 -15.15635,2.09609 z"
         id="path8"
         inkscape:label="Body" /></g><g
       id="g20"
       inkscape:label="Gun"><path
         style="fill:#784421;stroke-width:0.264583"
         d="m 70.801658,222.43806 7.980862,1.82419 28.38907,-7.52481 28.04703,7.75284 6.95476,-16.30377 -26.67889,7.41081 -7.29679,-3.6484 z"
         id="path19" /><path
         style="fill:#24221c;stroke-width:0.264583"
         d="m 37.860007,229.28722 33.43486,-6.98515 36.917113,-10.10988 -0.6482,-1.83725 -19.136919,4.75656 -0.187777,-2.05629 11.012325,-3.31929 -0.295066,-2.4005 -27.826994,5.9547 1.068431,3.67003 11.694032,-3.19189 0.753262,2.29545 -39.735605,8.45817 -2.6844,-2.67538 -1.267296,0.65937 0.858318,2.75363 -5.149672,0.92542 z"
         id="path20" /></g></g></svg>
