<?xml version="1.0" encoding="UTF-8" standalone="no"?>
<!-- Created with Inkscape (http://www.inkscape.org/) -->

<svg
   width="210mm"
   height="297mm"
   viewBox="0 0 210 297"
   version="1.1"
   id="svg1"
   xml:space="preserve"
   inkscape:version="1.4.4 (dcaf3e7d9e, 2026-05-05)"
   sodipodi:docname="Throne.svg"
   inkscape:export-filename="Throne.png"
   inkscape:export-xdpi="96"
   inkscape:export-ydpi="96"
   xmlns:inkscape="http://www.inkscape.org/namespaces/inkscape"
   xmlns:sodipodi="http://sodipodi.sourceforge.net/DTD/sodipodi-0.dtd"
   xmlns="http://www.w3.org/2000/svg"
   xmlns:svg="http://www.w3.org/2000/svg"><sodipodi:namedview
     id="namedview1"
     pagecolor="#ffffff"
     bordercolor="#999999"
     borderopacity="1"
     inkscape:showpageshadow="2"
     inkscape:pageopacity="0"
     inkscape:pagecheckerboard="0"
     inkscape:deskcolor="#d1d1d1"
     inkscape:document-units="mm"
     inkscape:zoom="0.41023779"
     inkscape:cx="-381.48606"
     inkscape:cy="622.80951"
     inkscape:window-width="1920"
     inkscape:window-height="1172"
     inkscape:window-x="0"
     inkscape:window-y="0"
     inkscape:window-maximized="1"
     inkscape:current-layer="layer1" /><defs
     id="defs1" /><g
     inkscape:label="Layer 1"
     inkscape:groupmode="layer"
     id="layer1"><g
       id="g6"
       inkscape:label="Throne"
       transform="matrix(2.5677599,0,0,2.5677599,-152.96563,-143.82921)"><path
         style="fill:#b22e2a;fill-opacity:1;stroke-width:0.784;stroke-linecap:round;paint-order:markers stroke fill"
         d="m 90.091611,123.62908 -0.282164,9.91612 18.260183,-0.44341 -0.20155,-10.11767 -17.816778,-0.0403 z"
         id="path3" /><path
         style="fill:#932129;fill-opacity:1;stroke-width:0.303754;stroke-linecap:round;paint-order:markers stroke fill"
         d="m 87.546957,121.23192 -0.04236,9.91612 2.741042,-0.44341 -0.03025,-10.11767 -2.674482,-0.0403 z"
         id="path3-0" /><path
         style="fill:#932129;fill-opacity:1;stroke-width:0.303754;stroke-linecap:round;paint-order:markers stroke fill"
         d="m 107.60563,121.21134 -0.0424,9.91612 2.74104,-0.44341 -0.0302,-10.11767 -2.67448,-0.0403 z"
         id="path3-0-6" /><path
         style="fill:#b09c44;fill-opacity:1;stroke-width:0.784;stroke-linecap:round;paint-order:markers stroke fill"
         d="m 88.559853,130.6026 -0.08062,6.00611 0.08062,3.18445 2.015472,-0.16124 0.282165,-4.59528 8.223128,1.57207 8.545602,-1.65269 -0.4434,4.91776 2.17671,-0.0806 0.20154,-9.87582 -1.97516,0.16124 -0.0403,2.25733 -17.333061,0.28217 -0.161238,-3.06352 z"
         id="path2" /><ellipse
         style="fill:#cfb750;fill-opacity:1;stroke-width:0.784;stroke-linecap:round;paint-order:markers stroke fill"
         id="path1"
         cx="89.043564"
         cy="128.44604"
         rx="2.4588761"
         ry="2.4790308" /><path
         style="fill:#c4ab43;fill-opacity:1;stroke-width:0.784;stroke-linecap:round;paint-order:markers stroke fill"
         d="m 90.098244,120.65355 -2.508271,-0.057 0.171018,-3.87642 0.855091,-0.62706 -0.0285,-5.70062 -2.365756,-1.8812 -0.171019,-8.778954 1.197128,-0.484552 2.023719,-0.05701 0.627068,-0.684075 h 1.596173 l 2.023718,-3.306355 10.888177,0.114011 1.71019,3.192344 2.42276,0.05701 2.85031,1.539161 0.14251,8.80746 -2.30875,1.73869 -0.0855,5.15905 0.79809,0.96911 0.17102,3.7339 z"
         id="path4" /><ellipse
         style="fill:#cfb750;fill-opacity:1;stroke-width:0.784;stroke-linecap:round;paint-order:markers stroke fill"
         id="path1-2"
         cx="108.92351"
         cy="128.461"
         rx="2.4588761"
         ry="2.4790308" /><rect
         style="fill:#7c1f2b;fill-opacity:1;stroke-width:0.844085;stroke-linecap:round;paint-order:markers stroke fill"
         id="rect3"
         width="17.695847"
         height="17.615229"
         x="90.010994"
         y="103.95806" /><rect
         style="fill:#b09c44;fill-opacity:1;stroke-width:0.858731;stroke-linecap:round;paint-order:markers stroke fill"
         id="rect4"
         width="17.675692"
         height="1.6325325"
         x="90.010994"
         y="121.39189" /><path
         style="fill:#b09c44;fill-opacity:1;stroke-width:0.784;stroke-linecap:round;paint-order:markers stroke fill"
         d="m 88.658839,100.17408 -0.07126,-3.249348 -0.798087,-0.04275 V 95.38557 l 0.812337,-0.04275 -0.04275,-1.624677 1.724435,0.07126 -0.114012,1.467908 0.855094,0.04275 v 1.610426 l -0.769586,0.04275 -0.04275,3.263603 z"
         id="path5" /><path
         style="fill:#b09c44;fill-opacity:1;stroke-width:0.784;stroke-linecap:round;paint-order:markers stroke fill"
         d="m 107.74674,100.13888 -0.0713,-3.249345 -0.79809,-0.04275 v -1.496412 l 0.81234,-0.04275 -0.0427,-1.624677 1.72443,0.07126 -0.11401,1.467908 0.85509,0.04275 v 1.610426 l -0.76958,0.04275 -0.0427,3.2636 z"
         id="path5-7" /><path
         style="fill:#b09c44;fill-opacity:1;stroke-width:0.784;stroke-linecap:round;paint-order:markers stroke fill"
         d="m 98.164617,96.53994 -0.05701,-1.980964 -1.539166,-0.05701 -0.0285,-2.308749 1.596173,-0.926349 0.0285,-1.581922 1.453655,0.05701 0.07126,1.58192 1.581921,0.897848 -0.0427,2.351505 -1.524918,0.0285 c 0,0 0.156766,1.952461 0.09976,1.952461 -0.05701,0 -1.638927,-0.01426 -1.638927,-0.01426 z"
         id="path6" /></g></g></svg>
