<?xml version="1.0" encoding="UTF-8" standalone="no"?>
<!-- Created with Inkscape (http://www.inkscape.org/) -->

<svg
   width="210mm"
   height="297mm"
   viewBox="0 0 210 297"
   version="1.1"
   id="svg1"
   xml:space="preserve"
   inkscape:export-filename="TreeBase.png"
   inkscape:export-xdpi="96"
   inkscape:export-ydpi="96"
   inkscape:version="1.4.4 (dcaf3e7d9e, 2026-05-05)"
   sodipodi:docname="Tree.svg"
   xmlns:inkscape="http://www.inkscape.org/namespaces/inkscape"
   xmlns:sodipodi="http://sodipodi.sourceforge.net/DTD/sodipodi-0.dtd"
   xmlns="http://www.w3.org/2000/svg"
   xmlns:svg="http://www.w3.org/2000/svg"><sodipodi:namedview
     id="namedview1"
     pagecolor="#ffffff"
     bordercolor="#999999"
     borderopacity="1"
     inkscape:showpageshadow="2"
     inkscape:pageopacity="0"
     inkscape:pagecheckerboard="0"
     inkscape:deskcolor="#d1d1d1"
     inkscape:document-units="mm"
     inkscape:zoom="0.58016385"
     inkscape:cx="-5.170953"
     inkscape:cy="466.24759"
     inkscape:window-width="1920"
     inkscape:window-height="1172"
     inkscape:window-x="0"
     inkscape:window-y="0"
     inkscape:window-maximized="1"
     inkscape:current-layer="layer2" /><defs
     id="defs1" /><g
     inkscape:groupmode="layer"
     id="layer2"
     inkscape:label="Layer 2"><g
       id="g7"
       inkscape:label="BaseTree"
       style="fill:#6d3f01;fill-opacity:1"><path
         style="fill:#6d3f01;fill-opacity:1;stroke-width:0.264583"
         d="M 185.61207,297.57219 160.52936,220.0438 148.44405,155.51282 v -44.23679 l 1.8242,-59.286408 9.80506,-60.4265343 L -7.980863,-12.997406 -9.1209864,308.0613 Z"
         id="path1" /><path
         style="fill:#6d3f01;fill-opacity:1;stroke-width:0.264583"
         d="m 165.5459,246.26663 19.3821,6.15667 12.54136,-5.70062 3.64839,3.42037 -10.94518,4.10445 -12.08531,3.87641 -7.75284,-3.42036 z"
         id="path2" /><path
         style="fill:#6d3f01;fill-opacity:1;stroke-width:0.264583"
         d="m 153.68862,22.802466 46.74506,21.206293 19.38209,-22.574441 -15.04962,6.38469 -10.26111,8.892961 -39.44827,-19.382095 z"
         id="path3" /><path
         style="fill:#6d3f01;fill-opacity:1;stroke-width:0.264583"
         d="m 154.37269,12.313332 c 0.9121,0.228024 48.11321,20.978268 48.11321,20.978268 l -7.98086,5.016542 -46.28901,-21.206293 z"
         id="path4" /><path
         style="fill:#6d3f01;fill-opacity:1;stroke-width:0.264583"
         d="m 156.19689,8.2088878 49.48135,3.1923452 -4.33247,-5.9286411 -13.9095,0.2280245 -34.43172,0.2280248 z"
         id="path5" /><path
         style="fill:#6d3f01;fill-opacity:1;stroke-width:0.264583"
         d="m 185.15602,26.678884 2.28025,-4.332467 3.42037,0.912098 -3.42037,5.928641 z"
         id="path6" /><path
         style="fill:#6d3f01;fill-opacity:1;stroke-width:0.264583"
         d="m 171.24652,29.643205 v 5.244568 l -3.19235,4.788519 4.10445,2.052222 2.7363,-5.700617 0.91209,-5.472592 z"
         id="path7" /></g><path
       style="fill:#ffeeaa;fill-opacity:1;stroke-width:0.264583"
       d="m 148.67208,152.32047 c -6.84074,0 -170.562448,-4.10445 -170.562448,-4.10445 l 7.068765,-57.918255 164.177753,4.332468 z"
       id="path8"
       inkscape:label="Cut" /></g></svg>
