<?xml version="1.0" encoding="UTF-8" standalone="no"?>
<!-- Created with Inkscape (http://www.inkscape.org/) -->

<svg
   width="210mm"
   height="297mm"
   viewBox="0 0 210 297"
   version="1.1"
   id="svg1"
   xml:space="preserve"
   inkscape:version="1.4.4 (dcaf3e7d9e, 2026-05-05)"
   sodipodi:docname="Vampire.svg"
   inkscape:export-filename="Vampire.png"
   inkscape:export-xdpi="96"
   inkscape:export-ydpi="96"
   xmlns:inkscape="http://www.inkscape.org/namespaces/inkscape"
   xmlns:sodipodi="http://sodipodi.sourceforge.net/DTD/sodipodi-0.dtd"
   xmlns:xlink="http://www.w3.org/1999/xlink"
   xmlns="http://www.w3.org/2000/svg"
   xmlns:svg="http://www.w3.org/2000/svg"><sodipodi:namedview
     id="namedview1"
     pagecolor="#ffffff"
     bordercolor="#999999"
     borderopacity="1"
     inkscape:showpageshadow="2"
     inkscape:pageopacity="0"
     inkscape:pagecheckerboard="0"
     inkscape:deskcolor="#d1d1d1"
     inkscape:document-units="mm"
     inkscape:zoom="1.6409512"
     inkscape:cx="361.37577"
     inkscape:cy="844.32737"
     inkscape:window-width="1920"
     inkscape:window-height="1172"
     inkscape:window-x="0"
     inkscape:window-y="0"
     inkscape:window-maximized="1"
     inkscape:current-layer="layer1" /><defs
     id="defs1"><linearGradient
       id="linearGradient12"
       inkscape:collect="always"><stop
         style="stop-color:#7b45be;stop-opacity:1;"
         offset="0"
         id="stop13" /><stop
         style="stop-color:#7b45be;stop-opacity:0;"
         offset="1"
         id="stop14" /></linearGradient><linearGradient
       id="linearGradient11"
       inkscape:collect="always"><stop
         style="stop-color:#7b45be;stop-opacity:1;"
         offset="0"
         id="stop11" /><stop
         style="stop-color:#7b45be;stop-opacity:0;"
         offset="1"
         id="stop12" /></linearGradient><linearGradient
       id="linearGradient3"
       inkscape:collect="always"><stop
         style="stop-color:#000080;stop-opacity:1;"
         offset="0"
         id="stop3" /><stop
         style="stop-color:#00005b;stop-opacity:1;"
         offset="1"
         id="stop4" /></linearGradient><linearGradient
       inkscape:collect="always"
       xlink:href="#linearGradient3"
       id="linearGradient4"
       x1="88.922637"
       y1="240.64739"
       x2="98.999999"
       y2="240.64739"
       gradientUnits="userSpaceOnUse" /><linearGradient
       inkscape:collect="always"
       xlink:href="#linearGradient3"
       id="linearGradient5"
       gradientUnits="userSpaceOnUse"
       x1="88.922637"
       y1="240.64739"
       x2="98.999999"
       y2="240.64739"
       gradientTransform="matrix(-0.9733582,0.05202298,0.05337073,0.99857477,199.85338,-5.4159229)" /><radialGradient
       inkscape:collect="always"
       xlink:href="#linearGradient11"
       id="radialGradient12"
       cx="93.598534"
       cy="212.9548"
       fx="93.598534"
       fy="212.9548"
       r="4.2728009"
       gradientTransform="matrix(1,0,0,0.97169823,0,6.026997)"
       gradientUnits="userSpaceOnUse" /><radialGradient
       inkscape:collect="always"
       xlink:href="#linearGradient12"
       id="radialGradient14"
       cx="126.05287"
       cy="210.70868"
       fx="126.05287"
       fy="210.70868"
       r="4.2728009"
       gradientTransform="matrix(1,0,0,0.97169823,0,5.9634277)"
       gradientUnits="userSpaceOnUse" /></defs><g
     inkscape:label="Layer 1"
     inkscape:groupmode="layer"
     id="layer1"><rect
       style="fill:#ffeeaa;fill-opacity:1;stroke-width:0.264583"
       id="rect5"
       width="9.1099348"
       height="20.799675"
       x="103.75651"
       y="232.34364" /><path
       style="fill:#1a1a1a;stroke-width:0.264583"
       d="m 98.355048,252.17589 4.353422,24.02442 -3.224757,3.38601 h 8.545607 l -0.32248,-23.8632 0.96743,1.12867 0.32247,22.41205 10.80293,1.45114 -5.15961,-5.15962 2.57981,-26.60422 c 0,0 -6.93323,2.90228 -18.058634,1.12866 -0.765878,2.15655 -0.806188,2.09609 -0.806188,2.09609 z"
       id="path1"
       sodipodi:nodetypes="cccccccccccc" /><ellipse
       style="fill:#a7abd7;fill-opacity:1;stroke-width:0.264583"
       id="path4"
       cx="91.623367"
       cy="250.9666"
       rx="2.5394952"
       ry="2.1767099" /><path
       style="fill:url(#linearGradient4);stroke-width:0.264583"
       d="m 88.922637,249.35423 5.643324,1.2899 1.048044,-13.30211 3.385994,-4.91776 -4.434038,-1.77361 -5.320848,13.2215 z"
       id="path3" /><path
       style="fill:#000080;stroke-width:0.264583"
       d="m 104.40147,232.10179 -0.56434,13.62459 1.04805,11.20603 -6.77199,-0.96743 -5.965796,-2.82166 3.950324,-17.4943 4.111562,-5.5627 z"
       id="path2" /><ellipse
       style="fill:#a7abd7;fill-opacity:1;stroke-width:0.261221"
       id="path4-1"
       cx="-110.54794"
       cy="256.2247"
       rx="2.4753666"
       ry="2.1767099"
       transform="matrix(-0.99857477,0.05337073,0.05337073,0.99857477,0,0)" /><path
       style="fill:url(#linearGradient5);stroke-width:0.261221"
       d="m 126.60803,248.20895 -5.42414,1.58164 -1.73007,-13.22862 -3.55825,-4.73461 4.22125,-2.00175 5.88473,12.92585 z"
       id="path3-2" /><path
       style="fill:#000080;stroke-width:0.261221"
       d="m 110.62081,231.78635 1.27645,13.57582 -0.42205,11.24458 6.53994,-1.31835 5.65625,-3.128 -4.77876,-17.26386 -4.29891,-5.34087 z"
       id="path2-9" /><path
       style="fill:#ff0000;fill-opacity:1;stroke-width:0.264583"
       d="m 82.956838,222.3469 7.900652,-1.37052 9.43241,7.57818 16.12378,0.32247 12.25407,-7.98127 5.5627,4.11157 -0.48371,1.77361 -7.98127,5.80456 -6.12703,0.64495 -16.6075,0.48372 -10.157976,-1.85424 -5.88518,-4.11156 -3.950325,-3.386 z"
       id="path8" /><path
       style="fill:#1a1a1a;fill-opacity:1;stroke-width:0.264583"
       d="m 87.310261,185.26221 -3.305377,7.57818 -0.806188,7.2557 0.644951,11.68974 2.660423,0.56433 8.626223,-17.73616 4.434039,1.37052 6.771988,4.59528 2.9829,0.64495 5.88518,-5.72394 5.48208,-2.25733 4.11156,2.01547 8.06189,13.06027 3.78909,-1.85424 0.48372,-2.17671 -5.80457,-16.68811 -4.11156,-4.03094 -6.77199,-4.11157 -12.33469,-0.48371 -11.044784,1.2899 -6.852607,2.90228 z"
       id="path7" /><path
       style="fill:#a7abd7;fill-opacity:1;stroke-width:0.264583"
       d="m 90.373778,220.81514 -5.320847,1.04805 -3.950327,-1.53176 -3.950325,-7.01384 -1.692997,-5.48209 -0.08062,-2.25733 5.15961,1.61238 4.917752,4.59528 0.806188,-1.12867 2.176709,-11.93159 5.320847,-5.24023 5.88518,0.48371 9.190552,6.85261 5.9658,-6.85261 6.12704,-1.61238 5.80456,1.93486 4.03094,5.72394 2.25733,7.2557 1.93485,-0.16124 1.693,-2.90228 4.51466,-1.61238 0.96743,2.0961 -0.88681,6.69136 -2.33795,4.11157 -6.77199,4.03094 -2.33794,-0.72557 -2.25733,4.35342 -7.17508,6.53013 -6.77199,1.37052 -9.19055,-0.32247 -6.852614,-1.85424 z"
       id="path6" /><path
       style="fill:#ffd42a;fill-opacity:1;stroke-width:0.264583"
       d="m 106.33336,237.82631 -5.43206,5.35796 -2.963394,-1.9563 0.121725,-1.14785 -3.441481,-4.17565 -0.715661,-4.46413 2.061066,-4.27159 1.472342,-0.64223 -0.4064,-2.308 3.351093,1.02352 5.37874,4.86238 2.3712,-0.57523 1.87787,0.12554 1.66402,-4.95919 4.32838,-1.9984 3.58485,3.99833 1.3231,4.07558 -0.3728,4.9036 -2.73932,6.28901 -1.73831,0.42719 -4.77512,-4.52092 -2.70036,0.529 z"
       id="path5" /><path
       style="fill:#1a1a1a;fill-opacity:1;stroke-width:0.264583"
       d="m 94.727198,211.54397 13.785832,3.22476 14.99511,-4.03095 -0.72557,6.93323 -5.9658,6.44951 -5.88517,2.09609 -4.99838,-0.24186 -6.530125,-2.82166 -3.869709,-5.88518 z"
       id="path14" /><ellipse
       style="fill:#1a1a1a;fill-opacity:1;stroke-width:0.264583"
       id="path9"
       cx="99.201546"
       cy="207.95642"
       rx="2.2170196"
       ry="2.0557816" /><ellipse
       style="fill:#1a1a1a;fill-opacity:1;stroke-width:0.264583"
       id="path9-3"
       cx="119.12862"
       cy="206.97964"
       rx="2.2170196"
       ry="2.0557816" /><ellipse
       style="fill:url(#radialGradient12);fill-opacity:1;stroke-width:0.264583"
       id="path11"
       cx="93.598534"
       cy="212.9548"
       rx="4.2728009"
       ry="4.1518731" /><ellipse
       style="fill:url(#radialGradient14);fill-opacity:1;stroke-width:0.264583"
       id="path11-7"
       cx="126.05287"
       cy="210.70868"
       rx="4.2728009"
       ry="4.1518731" /><path
       style="fill:#ff8080;fill-opacity:1;stroke-width:0.264583"
       d="m 101.17671,224.20114 2.66042,-1.2899 4.75652,-0.32248 5.72394,1.85423 0.24185,0.80619 -3.46661,0.56434 -3.06351,0.16123 -2.66043,-0.48371 z"
       id="path15" /><path
       style="fill:#ffffff;fill-opacity:1;stroke-width:0.256322"
       d="m 114.65466,214.63578 c -0.90631,1.16883 0.4013,4.4936 0.4013,4.4936 l -0.24236,5.64623 3.29672,-4.2167 c 0,0 1.53254,-2.88454 1.33862,-4.4062 -0.0962,-0.75525 -0.53901,-1.5724 -1.18474,-1.89656 -1.0871,-0.54572 -2.83628,-0.61759 -3.60954,0.37963 z m 0.18978,-1.57885 c -0.90632,1.16883 0.4013,4.49359 0.4013,4.49359 l -0.24237,5.64624 3.29671,-4.2167 c 0,0 1.53255,-2.88454 1.33864,-4.4062 -0.0962,-0.75525 -0.53902,-1.5724 -1.18476,-1.89656 -1.08709,-0.54572 -2.83627,-0.61759 -3.60952,0.37963 z"
       id="path16"
       sodipodi:nodetypes="scccass" /><path
       style="fill:#ffffff;fill-opacity:1;stroke-width:0.264583"
       d="m 103.21019,215.11224 c 0.84122,1.2507 -0.88681,4.43404 -0.88681,4.43404 l -0.32248,5.64332 -3.063511,-4.51466 c 0,0 -1.32926,-3.01875 -0.96743,-4.51466 0.17958,-0.74246 0.73304,-1.51316 1.45114,-1.77361 1.208921,-0.43846 3.071381,-0.3415 3.789091,0.72557 z m -0.0392,-1.58979 c 0.84122,1.2507 -0.88681,4.43404 -0.88681,4.43404 l -0.32248,5.64332 -3.063511,-4.51466 c 0,0 -1.32926,-3.01875 -0.96743,-4.51466 0.17958,-0.74246 0.73304,-1.51316 1.45114,-1.77361 1.208921,-0.43846 3.071381,-0.3415 3.789091,0.72557 z"
       id="path16-5"
       sodipodi:nodetypes="scccass" /></g></svg>
